HIERARCHY
ROOT Hips
{
 OFFSET 0.000000 0.000000 0.000000
 CHANNELS 6 Xposition Yposition Zposition Yrotation Xrotation Zrotation
 JOINT Chest
 {
  OFFSET 0.000000 9.585900 0.002600
  CHANNELS 3 Yrotation Xrotation Zrotation
  JOINT Chest2
  {
   OFFSET 0.000000 9.601200 -0.005300
   CHANNELS 3 Yrotation Xrotation Zrotation
   JOINT Chest3
   {
    OFFSET 0.000000 9.561800 0.000000
    CHANNELS 3 Yrotation Xrotation Zrotation
    JOINT Chest4
    {
     OFFSET 0.000000 9.552100 0.000000
     CHANNELS 3 Yrotation Xrotation Zrotation
     JOINT Neck
     {
      OFFSET 0.000000 14.453000 0.000000
      CHANNELS 3 Yrotation Xrotation Zrotation
      JOINT Head
      {
       OFFSET 0.000000 8.936500 -0.011300
       CHANNELS 3 Yrotation Xrotation Zrotation
       End Site
       {
        OFFSET 0.000000 17.073600 -0.006000
       }
      }
     }
     JOINT RightCollar
     {
      OFFSET -2.921100 9.558500 0.000000
      CHANNELS 3 Yrotation Xrotation Zrotation
      JOINT RightShoulder
      {
       OFFSET -13.519700 0.000000 0.000000
       CHANNELS 3 Yrotation Xrotation Zrotation
       JOINT RightElbow
       {
        OFFSET 0.000000 -29.696600 0.000000
        CHANNELS 3 Yrotation Xrotation Zrotation
        JOINT RightWrist
        {
         OFFSET 0.000000 -24.004700 0.000000
         CHANNELS 3 Yrotation Xrotation Zrotation
         End Site
         {
          OFFSET 0.000000 -17.728500 0.000000
         }
        }
       }
      }
     }
     JOINT LeftCollar
     {
      OFFSET 2.921100 9.558500 0.000000
      CHANNELS 3 Yrotation Xrotation Zrotation
      JOINT LeftShoulder
      {
       OFFSET 13.519700 0.000000 0.000000
       CHANNELS 3 Yrotation Xrotation Zrotation
       JOINT LeftElbow
       {
        OFFSET 0.000000 -29.696600 0.000000
        CHANNELS 3 Yrotation Xrotation Zrotation
        JOINT LeftWrist
        {
         OFFSET 0.000000 -24.004700 0.000000
         CHANNELS 3 Yrotation Xrotation Zrotation
         End Site
         {
          OFFSET 0.000000 -17.728500 0.000000
         }
        }
       }
      }
     }
    }
   }
  }
 }
 JOINT RightHip
 {
  OFFSET -7.771700 -0.012900 -0.001300
  CHANNELS 3 Yrotation Xrotation Zrotation
  JOINT RightKnee
  {
   OFFSET 0.000000 -40.869800 0.001200
   CHANNELS 3 Yrotation Xrotation Zrotation
   JOINT RightAnkle
   {
    OFFSET 0.000000 -39.717900 0.002100
    CHANNELS 3 Yrotation Xrotation Zrotation
    JOINT RightToe
    {
     OFFSET 0.000000 -4.965400 11.033500
     CHANNELS 3 Yrotation Xrotation Zrotation
     End Site
     {
      OFFSET 0.000000 -1.423100 5.872300
     }
    }
   }
  }
 }
 JOINT LeftHip
 {
  OFFSET 7.771700 -0.012900 -0.001300
  CHANNELS 3 Yrotation Xrotation Zrotation
  JOINT LeftKnee
  {
   OFFSET 0.000000 -40.869800 0.001200
   CHANNELS 3 Yrotation Xrotation Zrotation
   JOINT LeftAnkle
   {
    OFFSET 0.000000 -39.717900 0.002100
    CHANNELS 3 Yrotation Xrotation Zrotation
    JOINT LeftToe
    {
     OFFSET 0.000000 -4.965400 11.033500
     CHANNELS 3 Yrotation Xrotation Zrotation
     End Site
     {
      OFFSET 0.000000 -1.423100 5.872300
     }
    }
   }
  }
 }
}
MOTION
Frames: 11
Frame Time: 0.008333
-123.280569 57.891412 102.848669 179.563998 -32.863920 -0.793117 1.763036 19.524564 2.303694 0.165229 2.393140 0.246249 0.284377 3.914655 0.403676 1.459219 16.852094 1.925659 -0.290743 15.035622 0.338810 -0.670179 -7.870551 0.742056 2.000863 -3.211536 -1.091762 8.753521 -12.422112 -17.903735 145.047482 -75.099419 -104.291724 19.159768 -18.774221 -49.362939 -7.257491 -4.499569 -2.982230 -1.532431 -9.653683 4.074746 -124.620809 -75.699443 90.393557 -9.005788 -16.399364 29.552835 8.965879 -41.783910 -9.250686 -7.313490 68.074668 -6.797341 6.735001 22.713361 7.857265 -0.136913 -16.045683 0.917312 -9.518474 -39.990141 0.546941 25.517872 63.861310 22.002979 -15.726463 6.648299 -2.978912 0.002011 -0.003050 0.014315
-123.279690 57.891645 102.849853 179.554584 -32.828316 -0.793512 1.761598 19.511709 2.310625 0.171390 2.377420 0.243142 0.281452 3.913342 0.404274 1.457233 16.846871 1.927731 -0.323729 15.003495 0.313505 -0.722759 -7.930111 0.707176 2.003473 -3.204184 -1.094819 8.752844 -12.429565 -17.911558 145.039106 -75.106312 -104.287799 19.162086 -18.780576 -49.361015 -7.257262 -4.493296 -2.985276 -1.527099 -9.659984 4.069470 -124.612859 -75.708691 90.375690 -9.006144 -16.395656 29.558823 8.913152 -41.830707 -9.202663 -7.263638 68.072788 -6.800920 6.732224 22.724126 7.861577 -0.135507 -16.052218 0.918218 -9.518641 -40.023748 0.570827 25.531050 63.865473 22.001202 -15.730182 6.643635 -2.969267 0.000067 -0.003223 0.012673
-123.279527 57.893715 102.848191 179.552568 -32.815185 -0.793717 1.754032 19.506814 2.308565 0.171108 2.375578 0.243342 0.286623 3.909243 0.404839 1.450192 16.842500 1.930163 -0.335200 14.989822 0.297430 -0.793324 -8.003980 0.669555 2.008641 -3.193419 -1.096031 8.754816 -12.435853 -17.915310 145.038884 -75.103547 -104.284410 19.161246 -18.776388 -49.369080 -7.261677 -4.481010 -2.978997 -1.519818 -9.661752 4.051893 -124.602207 -75.713135 90.361736 -9.011396 -16.392088 29.571219 8.887938 -41.848485 -9.183429 -7.234461 68.071768 -6.794396 6.732945 22.734480 7.862022 -0.125183 -16.060820 0.916576 -9.519009 -40.036380 0.582027 25.521104 63.866218 21.983665 -15.727999 6.649216 -2.967603 0.004284 -0.008074 0.012407
-123.279415 57.895818 102.846391 179.552184 -32.804574 -0.794210 1.745576 19.502063 2.304322 0.167048 2.376753 0.244884 0.294332 3.903965 0.405146 1.443279 16.836989 1.933437 -0.346975 14.977558 0.280850 -0.864434 -8.075620 0.631768 2.018871 -3.182029 -1.097114 8.745642 -12.437158 -17.918364 145.040543 -75.101818 -104.283186 19.159733 -18.775929 -49.375341 -7.271915 -4.456879 -2.969148 -1.514258 -9.661752 4.032419 -124.624176 -75.707652 90.394562 -9.018162 -16.387582 29.584592 8.879937 -41.861755 -9.177849 -7.226319 68.071751 -6.793427 6.739105 22.753903 7.854735 -0.132534 -16.079517 0.927052 -9.520082 -40.046391 0.588399 25.522126 63.864509 21.975707 -15.718251 6.653639 -2.961860 -0.004805 -0.009818 0.013115
-123.277915 57.895922 102.847616 179.538928 -32.773320 -0.795515 1.749849 19.478260 2.311358 0.166544 2.374591 0.245179 0.290512 3.900740 0.400329 1.444997 16.830370 1.941188 -0.380520 14.948301 0.252403 -0.915910 -8.127300 0.597943 2.031411 -3.170374 -1.099640 8.736268 -12.440165 -17.927010 145.069509 -75.103773 -104.305531 19.158608 -18.781310 -49.370822 -7.267762 -4.445459 -2.973680 -1.514120 -9.661962 4.024758 -124.628967 -75.704497 90.405051 -9.021065 -16.385103 29.589952 8.853204 -41.901099 -9.148444 -7.211417 68.073429 -6.801502 6.735955 22.762912 7.844070 -0.132587 -16.086516 0.933812 -9.518989 -40.076188 0.608678 25.529721 63.865315 21.975583 -15.714422 6.651208 -2.957281 -0.011403 -0.008030 0.014210
-123.277626 57.897299 102.846607 179.535748 -32.757317 -0.794118 1.742172 19.472334 2.312734 0.167348 2.370725 0.244294 0.291611 3.896451 0.401233 1.438469 16.825472 1.942868 -0.452906 14.886890 0.211688 -0.927357 -8.146433 0.566046 2.044674 -3.161557 -1.103369 8.725209 -12.439476 -17.932251 145.101885 -75.111161 -104.346521 19.155455 -18.784752 -49.360635 -7.283388 -4.419968 -2.963192 -1.518282 -9.648264 3.994025 -124.650308 -75.682564 90.458374 -9.015019 -16.385951 29.596887 8.808949 -41.923843 -9.119149 -7.199443 68.076752 -6.819225 6.738451 22.762296 7.833165 -0.131388 -16.088245 0.937674 -9.512768 -40.091174 0.614702 25.533201 63.866287 21.974937 -15.731324 6.645851 -2.957490 -0.007873 -0.006808 0.014705
-123.276661 57.898622 102.845488 179.534277 -32.741092 -0.797060 1.737703 19.465485 2.317605 0.167747 2.366271 0.243787 0.279887 3.897078 0.406186 1.446878 16.819112 1.936616 -0.487125 14.857949 0.192206 -0.976678 -8.200455 0.532358 2.046997 -3.156244 -1.099984 8.724106 -12.435103 -17.944331 145.134738 -75.117333 -104.385891 19.153117 -18.782145 -49.362985 -7.283289 -4.412170 -2.963018 -1.525938 -9.633867 3.981320 -124.628369 -75.682104 90.442924 -9.013566 -16.387255 29.605539 8.800058 -41.940434 -9.111934 -7.236005 68.076242 -6.854607 6.748755 22.762175 7.824567 -0.131196 -16.089266 0.940635 -9.497334 -40.103167 0.626706 25.509476 63.868629 21.952199 -15.744124 6.641112 -2.954611 -0.014194 -0.007232 0.013541
-123.275716 57.899929 102.844178 179.534926 -32.724887 -0.800958 1.732902 19.459739 2.322434 0.171200 2.357585 0.241607 0.279581 3.896387 0.406313 1.443035 16.817432 1.939168 -0.520815 14.829079 0.173219 -1.026683 -8.256495 0.500057 2.048295 -3.153253 -1.100668 8.718183 -12.429379 -17.946861 145.157633 -75.119794 -104.412161 19.151190 -18.782541 -49.360386 -7.284205 -4.404144 -2.961373 -1.531264 -9.619026 3.966279 -124.582086 -75.697205 90.401732 -8.992106 -16.379279 29.609738 8.792303 -41.956375 -9.107270 -7.293650 68.076240 -6.906267 6.761786 22.760936 7.818226 -0.135908 -16.090267 0.940960 -9.483887 -40.118626 0.633674 25.499009 63.874167 21.943668 -15.748644 6.635811 -2.948848 -0.020421 -0.005745 0.015226
-123.275140 57.901693 102.841921 179.535078 -32.714282 -0.803102 1.726519 19.458938 2.324576 0.173461 2.358427 0.241892 0.278576 3.893741 0.406444 1.439453 16.812588 1.940739 -0.543183 14.803370 0.156495 -1.085033 -8.321548 0.466182 2.049919 -3.153338 -1.104418 8.722059 -12.429678 -17.948647 145.147133 -75.129565 -104.407788 19.147250 -18.782290 -49.357688 -7.287347 -4.392534 -2.954629 -1.527340 -9.612220 3.945416 -124.600033 -75.689643 90.424855 -8.986624 -16.371276 29.612575 8.788413 -41.963057 -9.106685 -7.326964 68.075776 -6.931525 6.767153 22.753248 7.813233 -0.133897 -16.086414 0.937137 -9.478411 -40.128671 0.638067 25.505800 63.878864 21.945707 -15.751674 6.630278 -2.939455 -0.010055 -0.006901 0.011856
-123.273344 57.903627 102.839191 179.539760 -32.706614 -0.816707 1.722276 19.455539 2.335695 0.160665 2.367585 0.245970 0.278660 3.888844 0.407651 1.443312 16.802832 1.943037 -0.546712 14.797062 0.139568 -1.118324 -8.358158 0.448495 2.052674 -3.142592 -1.108314 8.712362 -12.430558 -17.955162 145.167014 -75.135455 -104.418362 19.141557 -18.779113 -49.350927 -7.305508 -4.359542 -2.947207 -1.500531 -9.624667 3.919572 -124.573204 -75.694022 90.395305 -8.986460 -16.369822 29.620450 8.786279 -41.970406 -9.103034 -7.359864 68.079808 -6.952209 6.769451 22.743378 7.815472 -0.127893 -16.080812 0.930136 -9.483128 -40.132970 0.652555 25.512379 63.881675 21.950256 -15.747081 6.642578 -2.925385 -0.028041 -0.025800 0.002788
-123.272921 57.905146 102.836731 179.540669 -32.697191 -0.822786 1.712846 19.454441 2.339316 0.161952 2.364133 0.246469 0.284619 3.885738 0.405694 1.431144 16.803902 1.948384 -0.575353 14.764871 0.115471 -1.184279 -8.440179 0.411269 2.060111 -3.133951 -1.107851 8.704936 -12.435021 -17.962469 145.180357 -75.140455 -104.421404 19.131124 -18.775806 -49.357057 -7.301896 -4.345800 -2.948618 -1.487486 -9.620917 3.906663 -124.489251 -75.718140 90.308776 -8.996783 -16.380765 29.626631 8.808036 -41.973471 -9.113518 -7.392751 68.078216 -6.966278 6.772209 22.740232 7.832720 -0.122640 -16.081023 0.913777 -9.469453 -40.140874 0.652891 25.515840 63.883786 21.961770 -15.756858 6.635404 -2.921321 -0.028941 -0.026114 0.000665
